<?xml version="1.0" encoding="UTF-8" standalone="no"?>
<!-- Created with Inkscape (http://www.inkscape.org/) -->

<svg
   version="1.1"
   id="svg2"
   xml:space="preserve"
   width="210mm"
   height="297mm"
   viewBox="0 0 793.70079 1122.5197"
   sodipodi:docname="paper_circuit_pin.svg"
   inkscape:version="1.1.2 (0a00cf5339, 2022-02-04, custom)"
   xmlns:inkscape="http://www.inkscape.org/namespaces/inkscape"
   xmlns:sodipodi="http://sodipodi.sourceforge.net/DTD/sodipodi-0.dtd"
   xmlns="http://www.w3.org/2000/svg"
   xmlns:svg="http://www.w3.org/2000/svg"><defs
     id="defs6"><clipPath
       clipPathUnits="userSpaceOnUse"
       id="clipPath20"><path
         d="m 54.297,606.629 h 252 v 144 h -252 z"
         id="path18" /></clipPath><clipPath
       clipPathUnits="userSpaceOnUse"
       id="clipPath96"><path
         d="m 54.297,606.629 h 252 v 144 h -252 z"
         id="path94" /></clipPath><clipPath
       clipPathUnits="userSpaceOnUse"
       id="clipPath124"><path
         d="m 54.297,606.629 h 252 v 144 h -252 z"
         id="path122" /></clipPath><clipPath
       clipPathUnits="userSpaceOnUse"
       id="clipPath134"><path
         d="m 101.45,685.674 h 0.004 v -2.705 h -0.004 z"
         id="path132" /></clipPath><clipPath
       clipPathUnits="userSpaceOnUse"
       id="clipPath280"><path
         d="m 54.297,463.172 h 252 v 144 h -252 z"
         id="path278" /></clipPath><clipPath
       clipPathUnits="userSpaceOnUse"
       id="clipPath320"><path
         d="m 54.297,463.172 h 252 v 144 h -252 z"
         id="path318" /></clipPath><clipPath
       clipPathUnits="userSpaceOnUse"
       id="clipPath338"><path
         d="m 54.297,463.172 h 252 v 144 h -252 z"
         id="path336" /></clipPath><clipPath
       clipPathUnits="userSpaceOnUse"
       id="clipPath382"><path
         d="m 54.297,463.172 h 252 v 144 h -252 z"
         id="path380" /></clipPath><clipPath
       clipPathUnits="userSpaceOnUse"
       id="clipPath410"><path
         d="m 54.297,463.172 h 252 v 144 h -252 z"
         id="path408" /></clipPath><clipPath
       clipPathUnits="userSpaceOnUse"
       id="clipPath420"><path
         d="m 101.45,542.218 h 0.004 v -2.706 h -0.004 z"
         id="path418" /></clipPath><clipPath
       clipPathUnits="userSpaceOnUse"
       id="clipPath566"><path
         d="m 54.297,318.715 h 252 v 144 h -252 z"
         id="path564" /></clipPath><clipPath
       clipPathUnits="userSpaceOnUse"
       id="clipPath606"><path
         d="m 54.297,318.715 h 252 v 144 h -252 z"
         id="path604" /></clipPath><clipPath
       clipPathUnits="userSpaceOnUse"
       id="clipPath624"><path
         d="m 54.297,318.715 h 252 v 144 h -252 z"
         id="path622" /></clipPath><clipPath
       clipPathUnits="userSpaceOnUse"
       id="clipPath668"><path
         d="m 54.297,318.715 h 252 v 144 h -252 z"
         id="path666" /></clipPath><clipPath
       clipPathUnits="userSpaceOnUse"
       id="clipPath696"><path
         d="m 54.297,318.715 h 252 v 144 h -252 z"
         id="path694" /></clipPath><clipPath
       clipPathUnits="userSpaceOnUse"
       id="clipPath706"><path
         d="m 101.45,397.761 h 0.004 v -2.706 h -0.004 z"
         id="path704" /></clipPath><clipPath
       clipPathUnits="userSpaceOnUse"
       id="clipPath852"><path
         d="m 54.297,175.258 h 252 v 144 h -252 z"
         id="path850" /></clipPath><clipPath
       clipPathUnits="userSpaceOnUse"
       id="clipPath892"><path
         d="m 54.297,175.258 h 252 v 144 h -252 z"
         id="path890" /></clipPath><clipPath
       clipPathUnits="userSpaceOnUse"
       id="clipPath910"><path
         d="m 54.297,175.258 h 252 v 144 h -252 z"
         id="path908" /></clipPath><clipPath
       clipPathUnits="userSpaceOnUse"
       id="clipPath954"><path
         d="m 54.297,175.258 h 252 v 144 h -252 z"
         id="path952" /></clipPath><clipPath
       clipPathUnits="userSpaceOnUse"
       id="clipPath982"><path
         d="m 54.297,175.258 h 252 v 144 h -252 z"
         id="path980" /></clipPath><clipPath
       clipPathUnits="userSpaceOnUse"
       id="clipPath992"><path
         d="m 101.45,254.304 h 0.004 v -2.706 h -0.004 z"
         id="path990" /></clipPath><clipPath
       clipPathUnits="userSpaceOnUse"
       id="clipPath1138"><path
         d="m 54.297,31.677 h 252 v 144 h -252 z"
         id="path1136" /></clipPath><clipPath
       clipPathUnits="userSpaceOnUse"
       id="clipPath1178"><path
         d="m 54.297,31.677 h 252 v 144 h -252 z"
         id="path1176" /></clipPath><clipPath
       clipPathUnits="userSpaceOnUse"
       id="clipPath1196"><path
         d="m 54.297,31.677 h 252 v 144 h -252 z"
         id="path1194" /></clipPath><clipPath
       clipPathUnits="userSpaceOnUse"
       id="clipPath1240"><path
         d="m 54.297,31.677 h 252 v 144 h -252 z"
         id="path1238" /></clipPath><clipPath
       clipPathUnits="userSpaceOnUse"
       id="clipPath1268"><path
         d="m 54.297,31.677 h 252 v 144 h -252 z"
         id="path1266" /></clipPath><clipPath
       clipPathUnits="userSpaceOnUse"
       id="clipPath1278"><path
         d="m 101.45,110.723 h 0.004 v -2.706 h -0.004 z"
         id="path1276" /></clipPath><clipPath
       clipPathUnits="userSpaceOnUse"
       id="clipPath1424"><path
         d="m 306,606.629 h 252 v 144 H 306 Z"
         id="path1422" /></clipPath><clipPath
       clipPathUnits="userSpaceOnUse"
       id="clipPath1500"><path
         d="m 306,606.629 h 252 v 144 H 306 Z"
         id="path1498" /></clipPath><clipPath
       clipPathUnits="userSpaceOnUse"
       id="clipPath1528"><path
         d="m 306,606.629 h 252 v 144 H 306 Z"
         id="path1526" /></clipPath><clipPath
       clipPathUnits="userSpaceOnUse"
       id="clipPath1538"><path
         d="m 353.153,685.674 h 0.004 v -2.705 h -0.004 z"
         id="path1536" /></clipPath><clipPath
       clipPathUnits="userSpaceOnUse"
       id="clipPath1684"><path
         d="m 306,463.172 h 252 v 144 H 306 Z"
         id="path1682" /></clipPath><clipPath
       clipPathUnits="userSpaceOnUse"
       id="clipPath1724"><path
         d="m 306,463.172 h 252 v 144 H 306 Z"
         id="path1722" /></clipPath><clipPath
       clipPathUnits="userSpaceOnUse"
       id="clipPath1742"><path
         d="m 306,463.172 h 252 v 144 H 306 Z"
         id="path1740" /></clipPath><clipPath
       clipPathUnits="userSpaceOnUse"
       id="clipPath1786"><path
         d="m 306,463.172 h 252 v 144 H 306 Z"
         id="path1784" /></clipPath><clipPath
       clipPathUnits="userSpaceOnUse"
       id="clipPath1814"><path
         d="m 306,463.172 h 252 v 144 H 306 Z"
         id="path1812" /></clipPath><clipPath
       clipPathUnits="userSpaceOnUse"
       id="clipPath1824"><path
         d="m 353.153,542.218 h 0.004 v -2.706 h -0.004 z"
         id="path1822" /></clipPath><clipPath
       clipPathUnits="userSpaceOnUse"
       id="clipPath1970"><path
         d="m 306,318.715 h 252 v 144 H 306 Z"
         id="path1968" /></clipPath><clipPath
       clipPathUnits="userSpaceOnUse"
       id="clipPath2010"><path
         d="m 306,318.715 h 252 v 144 H 306 Z"
         id="path2008" /></clipPath><clipPath
       clipPathUnits="userSpaceOnUse"
       id="clipPath2028"><path
         d="m 306,318.715 h 252 v 144 H 306 Z"
         id="path2026" /></clipPath><clipPath
       clipPathUnits="userSpaceOnUse"
       id="clipPath2072"><path
         d="m 306,318.715 h 252 v 144 H 306 Z"
         id="path2070" /></clipPath><clipPath
       clipPathUnits="userSpaceOnUse"
       id="clipPath2100"><path
         d="m 306,318.715 h 252 v 144 H 306 Z"
         id="path2098" /></clipPath><clipPath
       clipPathUnits="userSpaceOnUse"
       id="clipPath2110"><path
         d="m 353.153,397.761 h 0.004 v -2.706 h -0.004 z"
         id="path2108" /></clipPath><clipPath
       clipPathUnits="userSpaceOnUse"
       id="clipPath2256"><path
         d="m 306,175.258 h 252 v 144 H 306 Z"
         id="path2254" /></clipPath><clipPath
       clipPathUnits="userSpaceOnUse"
       id="clipPath2296"><path
         d="m 306,175.258 h 252 v 144 H 306 Z"
         id="path2294" /></clipPath><clipPath
       clipPathUnits="userSpaceOnUse"
       id="clipPath2314"><path
         d="m 306,175.258 h 252 v 144 H 306 Z"
         id="path2312" /></clipPath><clipPath
       clipPathUnits="userSpaceOnUse"
       id="clipPath2358"><path
         d="m 306,175.258 h 252 v 144 H 306 Z"
         id="path2356" /></clipPath><clipPath
       clipPathUnits="userSpaceOnUse"
       id="clipPath2386"><path
         d="m 306,175.258 h 252 v 144 H 306 Z"
         id="path2384" /></clipPath><clipPath
       clipPathUnits="userSpaceOnUse"
       id="clipPath2396"><path
         d="m 353.153,254.304 h 0.004 v -2.706 h -0.004 z"
         id="path2394" /></clipPath><clipPath
       clipPathUnits="userSpaceOnUse"
       id="clipPath2542"><path
         d="m 306,31.677 h 252 v 144 H 306 Z"
         id="path2540" /></clipPath><clipPath
       clipPathUnits="userSpaceOnUse"
       id="clipPath2582"><path
         d="m 306,31.677 h 252 v 144 H 306 Z"
         id="path2580" /></clipPath><clipPath
       clipPathUnits="userSpaceOnUse"
       id="clipPath2600"><path
         d="m 306,31.677 h 252 v 144 H 306 Z"
         id="path2598" /></clipPath><clipPath
       clipPathUnits="userSpaceOnUse"
       id="clipPath2644"><path
         d="m 306,31.677 h 252 v 144 H 306 Z"
         id="path2642" /></clipPath><clipPath
       clipPathUnits="userSpaceOnUse"
       id="clipPath2672"><path
         d="m 306,31.677 h 252 v 144 H 306 Z"
         id="path2670" /></clipPath><clipPath
       clipPathUnits="userSpaceOnUse"
       id="clipPath2682"><path
         d="m 353.153,110.723 h 0.004 v -2.706 h -0.004 z"
         id="path2680" /></clipPath><clipPath
       clipPathUnits="userSpaceOnUse"
       id="clipPath22820"><path
         d="m 49.425,607.397 h 252 v 144 h -252 z"
         id="path22818" /></clipPath><clipPath
       clipPathUnits="userSpaceOnUse"
       id="clipPath22872"><path
         d="m 49.425,607.397 h 252 v 144 h -252 z"
         id="path22870" /></clipPath><clipPath
       clipPathUnits="userSpaceOnUse"
       id="clipPath22902"><path
         d="m 49.425,607.397 h 252 v 144 h -252 z"
         id="path22900" /></clipPath><clipPath
       clipPathUnits="userSpaceOnUse"
       id="clipPath22936"><path
         d="m 49.425,607.397 h 252 v 144 h -252 z"
         id="path22934" /></clipPath><clipPath
       clipPathUnits="userSpaceOnUse"
       id="clipPath22956"><path
         d="m 49.425,463.392 h 252 v 144 h -252 z"
         id="path22954" /></clipPath><clipPath
       clipPathUnits="userSpaceOnUse"
       id="clipPath23008"><path
         d="m 49.425,463.392 h 252 v 144 h -252 z"
         id="path23006" /></clipPath><clipPath
       clipPathUnits="userSpaceOnUse"
       id="clipPath23038"><path
         d="m 49.425,463.392 h 252 v 144 h -252 z"
         id="path23036" /></clipPath><clipPath
       clipPathUnits="userSpaceOnUse"
       id="clipPath23072"><path
         d="m 49.425,463.392 h 252 v 144 h -252 z"
         id="path23070" /></clipPath><clipPath
       clipPathUnits="userSpaceOnUse"
       id="clipPath23100"><path
         d="m 49.425,319.387 h 252 v 144 h -252 z"
         id="path23098" /></clipPath><clipPath
       clipPathUnits="userSpaceOnUse"
       id="clipPath23152"><path
         d="m 49.425,319.387 h 252 v 144 h -252 z"
         id="path23150" /></clipPath><clipPath
       clipPathUnits="userSpaceOnUse"
       id="clipPath23182"><path
         d="m 49.425,319.387 h 252 v 144 h -252 z"
         id="path23180" /></clipPath><clipPath
       clipPathUnits="userSpaceOnUse"
       id="clipPath23216"><path
         d="m 49.425,319.387 h 252 v 144 h -252 z"
         id="path23214" /></clipPath><clipPath
       clipPathUnits="userSpaceOnUse"
       id="clipPath23244"><path
         d="m 49.425,175.382 h 252 v 144 h -252 z"
         id="path23242" /></clipPath><clipPath
       clipPathUnits="userSpaceOnUse"
       id="clipPath23296"><path
         d="m 49.425,175.382 h 252 v 144 h -252 z"
         id="path23294" /></clipPath><clipPath
       clipPathUnits="userSpaceOnUse"
       id="clipPath23326"><path
         d="m 49.425,175.382 h 252 v 144 h -252 z"
         id="path23324" /></clipPath><clipPath
       clipPathUnits="userSpaceOnUse"
       id="clipPath23360"><path
         d="m 49.425,175.382 h 252 v 144 h -252 z"
         id="path23358" /></clipPath><clipPath
       clipPathUnits="userSpaceOnUse"
       id="clipPath23388"><path
         d="m 49.425,31.378 h 252 v 144 h -252 z"
         id="path23386" /></clipPath><clipPath
       clipPathUnits="userSpaceOnUse"
       id="clipPath23440"><path
         d="m 49.425,31.378 h 252 v 144 h -252 z"
         id="path23438" /></clipPath><clipPath
       clipPathUnits="userSpaceOnUse"
       id="clipPath23470"><path
         d="m 49.425,31.378 h 252 v 144 h -252 z"
         id="path23468" /></clipPath><clipPath
       clipPathUnits="userSpaceOnUse"
       id="clipPath23504"><path
         d="m 49.425,31.378 h 252 v 144 h -252 z"
         id="path23502" /></clipPath><clipPath
       clipPathUnits="userSpaceOnUse"
       id="clipPath23532"><path
         d="m 301.382,607.397 h 252 v 144 h -252 z"
         id="path23530" /></clipPath><clipPath
       clipPathUnits="userSpaceOnUse"
       id="clipPath23584"><path
         d="m 301.382,607.397 h 252 v 144 h -252 z"
         id="path23582" /></clipPath><clipPath
       clipPathUnits="userSpaceOnUse"
       id="clipPath23614"><path
         d="m 301.382,607.397 h 252 v 144 h -252 z"
         id="path23612" /></clipPath><clipPath
       clipPathUnits="userSpaceOnUse"
       id="clipPath23648"><path
         d="m 301.382,607.397 h 252 v 144 h -252 z"
         id="path23646" /></clipPath><clipPath
       clipPathUnits="userSpaceOnUse"
       id="clipPath23668"><path
         d="m 301.382,463.392 h 252 v 144 h -252 z"
         id="path23666" /></clipPath><clipPath
       clipPathUnits="userSpaceOnUse"
       id="clipPath23720"><path
         d="m 301.382,463.392 h 252 v 144 h -252 z"
         id="path23718" /></clipPath><clipPath
       clipPathUnits="userSpaceOnUse"
       id="clipPath23750"><path
         d="m 301.382,463.392 h 252 v 144 h -252 z"
         id="path23748" /></clipPath><clipPath
       clipPathUnits="userSpaceOnUse"
       id="clipPath23784"><path
         d="m 301.382,463.392 h 252 v 144 h -252 z"
         id="path23782" /></clipPath><clipPath
       clipPathUnits="userSpaceOnUse"
       id="clipPath23812"><path
         d="m 301.382,319.387 h 252 v 144 h -252 z"
         id="path23810" /></clipPath><clipPath
       clipPathUnits="userSpaceOnUse"
       id="clipPath23864"><path
         d="m 301.382,319.387 h 252 v 144 h -252 z"
         id="path23862" /></clipPath><clipPath
       clipPathUnits="userSpaceOnUse"
       id="clipPath23894"><path
         d="m 301.382,319.387 h 252 v 144 h -252 z"
         id="path23892" /></clipPath><clipPath
       clipPathUnits="userSpaceOnUse"
       id="clipPath23928"><path
         d="m 301.382,319.387 h 252 v 144 h -252 z"
         id="path23926" /></clipPath><clipPath
       clipPathUnits="userSpaceOnUse"
       id="clipPath23956"><path
         d="m 301.382,175.382 h 252 v 144 h -252 z"
         id="path23954" /></clipPath><clipPath
       clipPathUnits="userSpaceOnUse"
       id="clipPath24008"><path
         d="m 301.382,175.382 h 252 v 144 h -252 z"
         id="path24006" /></clipPath><clipPath
       clipPathUnits="userSpaceOnUse"
       id="clipPath24038"><path
         d="m 301.382,175.382 h 252 v 144 h -252 z"
         id="path24036" /></clipPath><clipPath
       clipPathUnits="userSpaceOnUse"
       id="clipPath24072"><path
         d="m 301.382,175.382 h 252 v 144 h -252 z"
         id="path24070" /></clipPath><clipPath
       clipPathUnits="userSpaceOnUse"
       id="clipPath24100"><path
         d="m 301.382,31.378 h 252 v 144 h -252 z"
         id="path24098" /></clipPath><clipPath
       clipPathUnits="userSpaceOnUse"
       id="clipPath24152"><path
         d="m 301.382,31.378 h 252 v 144 h -252 z"
         id="path24150" /></clipPath><clipPath
       clipPathUnits="userSpaceOnUse"
       id="clipPath24182"><path
         d="m 301.382,31.378 h 252 v 144 h -252 z"
         id="path24180" /></clipPath><clipPath
       clipPathUnits="userSpaceOnUse"
       id="clipPath24216"><path
         d="m 301.382,31.378 h 252 v 144 h -252 z"
         id="path24214" /></clipPath></defs><sodipodi:namedview
     id="namedview4"
     pagecolor="#ffffff"
     bordercolor="#666666"
     borderopacity="1.0"
     inkscape:pageshadow="2"
     inkscape:pageopacity="0.0"
     inkscape:pagecheckerboard="0"
     showgrid="false"
     units="mm"
     inkscape:document-units="mm"
     inkscape:zoom="1.901007"
     inkscape:cx="348.23649"
     inkscape:cy="219.62044"
     inkscape:window-width="1920"
     inkscape:window-height="998"
     inkscape:window-x="0"
     inkscape:window-y="0"
     inkscape:window-maximized="1"
     inkscape:current-layer="g8" /><g
     id="g8"
     inkscape:groupmode="layer"
     inkscape:label="PaperCircuitPin_10Count"
     transform="matrix(1.3333333,0,0,-1.3333333,0,1056)"><g
       id="g128"
       transform="translate(-12.405024,-181.66816)"><g
         id="g130" /><g
         id="g138"><g
           clip-path="url(#clipPath134)"
           id="g136" /></g></g><g
       id="g85538"
       transform="translate(3.8416641,98.08626)"><text
         transform="matrix(0,1,1,0,0,0)"
         style="font-variant:normal;font-weight:normal;font-stretch:normal;font-size:4.67px;font-family:'Myriad Pro';-inkscape-font-specification:Gauge-Regular;writing-mode:lr-tb;fill:#374049;fill-opacity:1;fill-rule:nonzero;stroke:none"
         id="text1998"
         x="524.78094"
         y="164.86954"><tspan
           x="524.78094 526.08386 528.64771 529.74982"
           y="164.86954"
           sodipodi:role="line"
           id="tspan1996">fold</tspan></text><text
         transform="matrix(0,-1,-1,0,0,0)"
         style="font-variant:normal;font-weight:normal;font-stretch:normal;font-size:4.67px;font-family:'Myriad Pro';-inkscape-font-specification:Gauge-Regular;writing-mode:lr-tb;fill:#374049;fill-opacity:1;fill-rule:nonzero;stroke:none"
         id="text2002"
         x="-535.35223"
         y="-169.44955"><tspan
           x="-535.35223 -534.04926 -531.48547 -530.38336"
           y="-169.44955"
           sodipodi:role="line"
           id="tspan2000">fold</tspan></text></g><g
       id="g2104"><g
         id="g2106" /><g
         id="g2114"><g
           clip-path="url(#clipPath2110)"
           id="g2112" /></g></g><g
       id="g24238"
       transform="translate(45.107145,145.95709)"><path
         d="M 0,0 H 503.703 Z"
         style="fill:#e72923;fill-opacity:1;fill-rule:nonzero;stroke:none"
         id="path24240" /></g><g
       id="g22"
       transform="rotate(-90,413.965,314.3436)"><path
         d="M 54.000002,0 H -30.008"
         style="fill:none;stroke:#aea79a;stroke-width:13;stroke-linecap:square;stroke-linejoin:miter;stroke-miterlimit:10;stroke-dasharray:none;stroke-opacity:1"
         id="path24"
         sodipodi:nodetypes="cc" /></g><g
       id="g26"
       transform="rotate(-90,484.1087,193.1539)"><path
         d="M 0,-51.000002 V -144.002 h 84.154 v -34.837"
         style="fill:none;stroke:#aea79a;stroke-width:13;stroke-linecap:square;stroke-linejoin:miter;stroke-miterlimit:10;stroke-dasharray:none;stroke-opacity:1"
         id="path28"
         sodipodi:nodetypes="cccc" /></g><g
       id="g30"
       transform="rotate(-90,336.6991,256.409)"><path
         d="M 0,0 V -29.833 H -56.491 V 19.331"
         style="fill:none;stroke:#aea79a;stroke-width:13;stroke-linecap:square;stroke-linejoin:miter;stroke-miterlimit:10;stroke-dasharray:none;stroke-opacity:1"
         id="path32" /></g><text
       transform="scale(1,-1)"
       style="font-variant:normal;font-weight:900;font-stretch:normal;font-size:16px;font-family:'Myriad Pro';-inkscape-font-specification:Gauge-Heavy;writing-mode:lr-tb;fill:#374049;fill-opacity:1;fill-rule:nonzero;stroke:none"
       id="text36"
       x="67.774017"
       y="-566.93909"><tspan
         sodipodi:role="line"
         id="tspan34"
         style="font-style:normal;font-variant:normal;font-weight:bold;font-stretch:normal;font-family:Arial;-inkscape-font-specification:'Arial Bold'"
         x="67.774017"
         y="-566.93909">+ LED -</tspan></text><text
       transform="scale(1,-1)"
       style="font-variant:normal;font-weight:normal;font-stretch:normal;font-size:4.67px;font-family:'Myriad Pro';-inkscape-font-specification:Gauge-Regular;writing-mode:lr-tb;fill:#374049;fill-opacity:1;fill-rule:nonzero;stroke:none"
       id="text40"
       x="56.502918"
       y="-710.38928"><tspan
         x="56.502918 57.805836 60.369678 61.47179"
         y="-710.38928"
         sodipodi:role="line"
         id="tspan38">fold</tspan></text><text
       transform="scale(-1,1)"
       style="font-variant:normal;font-weight:normal;font-stretch:normal;font-size:4.67px;font-family:'Myriad Pro';-inkscape-font-specification:Gauge-Regular;writing-mode:lr-tb;fill:#374049;fill-opacity:1;fill-rule:nonzero;stroke:none"
       id="text44"
       x="-67.074211"
       y="705.8092"><tspan
         x="-67.074211 -65.771294 -63.207447 -62.105335"
         y="705.8092"
         sodipodi:role="line"
         id="tspan42">fold</tspan></text><text
       transform="scale(1,-1)"
       style="font-variant:normal;font-weight:normal;font-stretch:normal;font-size:4.67px;font-family:'Myriad Pro';-inkscape-font-specification:Gauge-Regular;writing-mode:lr-tb;fill:#374049;fill-opacity:1;fill-rule:nonzero;stroke:none"
       id="text48"
       x="134.53813"
       y="-710.38928"><tspan
         x="134.53813 135.84105 138.40489 139.507"
         y="-710.38928"
         sodipodi:role="line"
         id="tspan46">fold</tspan></text><text
       transform="scale(-1,1)"
       style="font-variant:normal;font-weight:normal;font-stretch:normal;font-size:4.67px;font-family:'Myriad Pro';-inkscape-font-specification:Gauge-Regular;writing-mode:lr-tb;fill:#374049;fill-opacity:1;fill-rule:nonzero;stroke:none"
       id="text52"
       x="-145.10942"
       y="705.8092"><tspan
         x="-145.10942 -143.8065 -141.24266 -140.14055"
         y="705.8092"
         sodipodi:role="line"
         id="tspan50">fold</tspan></text><text
       transform="scale(1,-1)"
       style="font-variant:normal;font-weight:normal;font-stretch:normal;font-size:6.67px;font-family:'Myriad Pro';-inkscape-font-specification:Gauge-Regular;writing-mode:lr-tb;fill:#374049;fill-opacity:1;fill-rule:nonzero;stroke:none"
       id="text56"
       x="79.952126"
       y="-693.6676"><tspan
         sodipodi:role="line"
         id="tspan54"
         style="font-style:normal;font-variant:normal;font-weight:normal;font-stretch:normal;font-family:Arial;-inkscape-font-specification:Arial"
         x="79.952126"
         y="-693.6676">clip</tspan></text><g
       id="g82"
       transform="rotate(-90,344.65495,248.45315)"><path
         d="M 0,0 V -28.92"
         style="fill:none;stroke:#e72923;stroke-width:3;stroke-linecap:round;stroke-linejoin:miter;stroke-miterlimit:10;stroke-dasharray:none;stroke-opacity:1"
         id="path84"
         sodipodi:nodetypes="cc" /></g><g
       id="g86"
       transform="rotate(-90,341.9484,251.1597)"><path
         d="M 0,0 V 27.335"
         style="fill:none;stroke:#e72923;stroke-width:3;stroke-linecap:round;stroke-linejoin:miter;stroke-miterlimit:10;stroke-dasharray:none;stroke-opacity:1"
         id="path88"
         sodipodi:nodetypes="cc" /></g><g
       id="g98"
       transform="rotate(-90,348.60415,252.40235)"><path
         d="m 0,0 c 0,-4.362 3.536,-7.898 7.898,-7.898 4.362,0 7.899,3.536 7.899,7.898 0,2.267 -0.961,4.305 -2.49,5.745 H 2.49 C 0.96,4.305 0,2.267 0,0"
         style="fill:#e72923;fill-opacity:1;fill-rule:nonzero;stroke:none"
         id="path100" /></g><g
       id="g102"
       transform="rotate(-90,347.2992,245.8089)"><path
         d="m 0,0 c -2.921,0 -5.288,-2.368 -5.288,-5.288 0,-2.921 2.367,-5.289 5.288,-5.289 2.921,0 5.288,2.368 5.288,5.289 C 5.288,-2.368 2.921,0 0,0 Z"
         style="fill:none;stroke:#ffffff;stroke-width:1;stroke-linecap:square;stroke-linejoin:miter;stroke-miterlimit:10;stroke-dasharray:none;stroke-opacity:1"
         id="path104" /></g><g
       id="g106"
       transform="rotate(-90,346.78605,256.91665)"><path
         d="m 0,0 c 3.636,0 6.583,-2.947 6.583,-6.583 0,-3.636 -2.947,-6.584 -6.583,-6.584 -3.636,0 -6.583,2.948 -6.583,6.584 C -6.583,-2.947 -3.636,0 0,0"
         style="fill:#ffffff;fill-opacity:1;fill-rule:nonzero;stroke:none"
         id="path108" /></g><g
       id="g110"
       transform="rotate(-90,346.60774,256.66684)"><path
         d="m 0,0 c 3.636,0 6.583,-2.947 6.583,-6.583 0,-3.636 -2.947,-6.584 -6.583,-6.584 -3.636,0 -6.583,2.948 -6.583,6.584 C -6.583,-2.947 -3.636,0 0,0 Z"
         style="fill:none;stroke:#e72923;stroke-width:1;stroke-linecap:butt;stroke-linejoin:miter;stroke-miterlimit:10;stroke-dasharray:none;stroke-opacity:1"
         id="path112" /></g><text
       transform="scale(0.99103165,-1.0090495)"
       style="font-style:normal;font-variant:normal;font-weight:normal;font-stretch:normal;font-size:12.1935px;font-family:Arial;-inkscape-font-specification:Arial;writing-mode:lr-tb;fill:#e72923;fill-opacity:1;fill-rule:nonzero;stroke:none;stroke-width:0.991032"
       id="text116"
       x="80.881783"
       y="-594.70258"><tspan
         x="80.881783"
         y="-594.70258"
         id="tspan114"
         style="font-style:normal;font-variant:normal;font-weight:normal;font-stretch:normal;font-family:Arial;-inkscape-font-specification:Arial;stroke-width:0.991032">c</tspan></text><g
       id="g140"
       transform="rotate(-90,374.4445,333.6548)"><path
         d="M 0,0 V 117.664"
         style="fill:none;stroke:#000000;stroke-width:1;stroke-linecap:butt;stroke-linejoin:miter;stroke-miterlimit:4;stroke-dasharray:1, 2;stroke-dashoffset:0;stroke-opacity:1"
         id="path142" /></g><g
       id="g144"
       transform="rotate(-90,444.6023,232.6603)"><path
         d="M 0,0 V -65.163 H 16.474"
         style="fill:none;stroke:#e72923;stroke-width:1;stroke-linecap:butt;stroke-linejoin:miter;stroke-miterlimit:4;stroke-dasharray:none;stroke-opacity:1"
         id="path146" /></g><g
       id="g148"
       transform="rotate(-90,404.59775,261.65845)"><path
         d="M 0,0 C -0.119,0.186 -0.064,0.434 0.123,0.552 L 5.285,3.84 0.123,7.127 C -0.064,7.246 -0.119,7.494 0,7.68 0.119,7.866 0.368,7.92 0.552,7.802 L 6.244,4.177 C 6.359,4.104 6.429,3.977 6.429,3.84 6.429,3.703 6.359,3.576 6.244,3.502 L 0.552,-0.123 C 0.486,-0.165 0.411,-0.185 0.338,-0.185 0.206,-0.185 0.077,-0.12 0,0"
         style="fill:#e72923;fill-opacity:1;fill-rule:nonzero;stroke:none"
         id="path150" /></g><g
       id="g152"
       transform="rotate(-90,377.7445,230.9653)"><path
         d="M 0,0 H 15.602 V -17.024"
         style="fill:none;stroke:#e72923;stroke-width:1;stroke-linecap:butt;stroke-linejoin:miter;stroke-miterlimit:4;stroke-dasharray:none;stroke-opacity:1"
         id="path154" /></g><g
       id="g156"
       transform="rotate(-90,366.08545,230.86245)"><path
         d="M 0,0 C 0.186,0.119 0.434,0.064 0.552,-0.123 L 3.84,-5.285 7.127,-0.123 C 7.246,0.064 7.494,0.119 7.68,0 7.866,-0.119 7.92,-0.368 7.802,-0.552 L 4.177,-6.244 c -0.073,-0.115 -0.2,-0.185 -0.337,-0.185 -0.137,0 -0.264,0.07 -0.338,0.185 l -3.625,5.692 c -0.042,0.066 -0.062,0.141 -0.062,0.214 0,0.132 0.065,0.261 0.185,0.338"
         style="fill:#e72923;fill-opacity:1;fill-rule:nonzero;stroke:none"
         id="path158" /></g><g
       id="g160"
       transform="rotate(-90,327.2726,265.8355)"><path
         d="M 0,0 V -10.98 H -19.532"
         style="fill:none;stroke:#e72923;stroke-width:1;stroke-linecap:butt;stroke-linejoin:miter;stroke-miterlimit:4;stroke-dasharray:none;stroke-opacity:1"
         id="path162" /></g><g
       id="g164"
       transform="rotate(-90,330.7347,276.4377)"><path
         d="M 0,0 C 0.119,-0.186 0.064,-0.434 -0.123,-0.552 L -5.285,-3.84 -0.123,-7.127 C 0.064,-7.246 0.119,-7.494 0,-7.68 -0.119,-7.866 -0.368,-7.92 -0.552,-7.802 l -5.692,3.625 c -0.115,0.073 -0.185,0.2 -0.185,0.337 0,0.137 0.07,0.264 0.185,0.338 l 5.692,3.625 c 0.066,0.042 0.141,0.062 0.214,0.062 C -0.206,0.185 -0.077,0.12 0,0"
         style="fill:#e72923;fill-opacity:1;fill-rule:nonzero;stroke:none"
         id="path166" /></g><g
       id="g168"
       transform="rotate(-90,343.5899,293.1327)"><path
         d="M 0,0 H -12.877 V 15.373"
         style="fill:none;stroke:#e72923;stroke-width:1;stroke-linecap:butt;stroke-linejoin:miter;stroke-miterlimit:4;stroke-dasharray:none;stroke-opacity:1"
         id="path170" /></g><g
       id="g172"
       transform="rotate(-90,353.0614,292.6981)"><path
         d="M 0,0 C -0.186,-0.119 -0.434,-0.064 -0.552,0.123 L -3.84,5.285 -7.127,0.123 C -7.246,-0.064 -7.494,-0.119 -7.68,0 -7.866,0.119 -7.92,0.368 -7.802,0.552 l 3.625,5.692 c 0.073,0.115 0.2,0.185 0.337,0.185 0.137,0 0.264,-0.07 0.338,-0.185 L 0.123,0.552 C 0.165,0.486 0.185,0.411 0.185,0.338 0.185,0.206 0.12,0.077 0,0"
         style="fill:#e72923;fill-opacity:1;fill-rule:nonzero;stroke:none"
         id="path174" /></g><g
       id="g176"
       transform="rotate(-90,413.965,314.3436)"><path
         d="M 0,0 -28.996,-0.087"
         style="fill:none;stroke:#e72923;stroke-width:1;stroke-linecap:butt;stroke-linejoin:miter;stroke-miterlimit:4;stroke-dasharray:none;stroke-opacity:1"
         id="path178" /></g><g
       id="g180"
       transform="rotate(-90,427.61955,324.22885)"><path
         d="m 0,0 c 0.119,-0.186 0.065,-0.433 -0.121,-0.553 l -5.152,-3.303 5.172,-3.272 C 0.085,-7.246 0.141,-7.493 0.023,-7.68 -0.095,-7.866 -0.344,-7.921 -0.529,-7.804 l -5.703,3.608 c -0.115,0.073 -0.185,0.2 -0.186,0.337 0,0.137 0.069,0.264 0.184,0.338 l 5.681,3.642 c 0.067,0.042 0.141,0.063 0.215,0.063 C -0.206,0.185 -0.077,0.119 0,0"
         style="fill:#e72923;fill-opacity:1;fill-rule:nonzero;stroke:none"
         id="path182" /></g><g
       id="g254"
       transform="rotate(-90,413.40115,294.69815)"><path
         d="M 0,0 H 18 V -40.5 H 0"
         style="fill:none;stroke:#374049;stroke-width:1;stroke-linecap:butt;stroke-linejoin:miter;stroke-miterlimit:10;stroke-dasharray:none;stroke-opacity:1"
         id="path256" /></g><g
       id="g258"
       transform="rotate(-90,413.40115,294.69815)"><path
         d="M 0,0 H -18 V -40.5 H 0"
         style="fill:none;stroke:#374049;stroke-width:1;stroke-linecap:butt;stroke-linejoin:miter;stroke-miterlimit:10;stroke-dasharray:none;stroke-opacity:1"
         id="path260" /></g><g
       id="g262"
       transform="rotate(-90,410.3611,313.9898)"><path
         d="m 0,0 c 3.636,0 6.583,-2.947 6.583,-6.583 0,-3.636 -2.947,-6.584 -6.583,-6.584 -3.636,0 -6.583,2.948 -6.583,6.584 C -6.583,-2.947 -3.636,0 0,0"
         style="fill:#ffffff;fill-opacity:1;fill-rule:nonzero;stroke:none"
         id="path264" /></g><g
       id="g266"
       transform="rotate(-90,410.5089,314.12578)"><path
         d="m 0,0 c 3.636,0 6.583,-2.947 6.583,-6.583 0,-3.636 -2.947,-6.584 -6.583,-6.584 -3.636,0 -6.583,2.948 -6.583,6.584 C -6.583,-2.947 -3.636,0 0,0 Z"
         style="fill:none;stroke:#e72923;stroke-width:1;stroke-linecap:butt;stroke-linejoin:miter;stroke-miterlimit:10;stroke-dasharray:none;stroke-opacity:1"
         id="path268" /></g><text
       transform="scale(0.99103165,-1.0090495)"
       style="font-style:normal;font-variant:normal;font-weight:normal;font-stretch:normal;font-size:12.1935px;font-family:Arial;-inkscape-font-specification:Arial;writing-mode:lr-tb;fill:#e72923;fill-opacity:1;fill-rule:nonzero;stroke:none;stroke-width:0.991032"
       id="text272"
       x="87.453735"
       y="-713.84314"><tspan
         x="87.453735"
         y="-713.84314"
         id="tspan270"
         style="font-style:normal;font-variant:normal;font-weight:normal;font-stretch:normal;font-family:Arial;-inkscape-font-specification:Arial;stroke-width:0.991032">d</tspan></text><path
       id="rect5357"
       style="fill:none;stroke:#808080;stroke-width:1.13386;stroke-linecap:round;stroke-miterlimit:4;stroke-dasharray:1.13386, 4.53544;stroke-dashoffset:0"
       d="m 171.00121,765.47011 v -252.75"
       sodipodi:nodetypes="cc" /><g
       id="g22822"
       transform="rotate(90,-243.89251,487.01411)"><path
         d="M 0,0 H 27.333"
         style="fill:none;stroke:#aea79a;stroke-width:13;stroke-linecap:square;stroke-linejoin:miter;stroke-miterlimit:10;stroke-dasharray:none;stroke-opacity:1"
         id="path22824"
         sodipodi:nodetypes="cc" /></g><g
       id="g22826"
       transform="matrix(0,1.5405547,-1.5301232,0,270.66382,672.77324)"><path
         d="m 0,0 c -9.941,0 -18,8.059 -18,18 0,9.941 8.059,18 18,18 C 9.941,36 18,27.941 18,18 18,8.059 9.941,0 0,0 Z"
         style="fill:none;stroke:#374049;stroke-width:1;stroke-linecap:square;stroke-linejoin:miter;stroke-miterlimit:10;stroke-dasharray:none;stroke-opacity:1"
         id="path22828" /></g><g
       id="g22830"
       transform="rotate(90,-261.56236,446.50936)"><path
         d="M 0,0 V -117.663"
         style="fill:none;stroke:#000000;stroke-width:1;stroke-linecap:butt;stroke-linejoin:miter;stroke-miterlimit:4;stroke-dasharray:1, 2;stroke-dashoffset:0;stroke-opacity:1"
         id="path22832" /></g><text
       transform="scale(1,-1)"
       style="font-variant:normal;font-weight:normal;font-stretch:normal;font-size:4.67px;font-family:'Myriad Pro';-inkscape-font-specification:Gauge-Regular;writing-mode:lr-tb;fill:#374049;fill-opacity:1;fill-rule:nonzero;stroke:none"
       id="text22836"
       x="206.99217"
       y="-710.36212"><tspan
         x="206.99217 208.29515 210.85893 211.96111"
         y="-710.36212"
         sodipodi:role="line"
         id="tspan22834">fold</tspan></text><text
       transform="scale(-1,1)"
       style="font-variant:normal;font-weight:normal;font-stretch:normal;font-size:4.67px;font-family:'Myriad Pro';-inkscape-font-specification:Gauge-Regular;writing-mode:lr-tb;fill:#374049;fill-opacity:1;fill-rule:nonzero;stroke:none"
       id="text22840"
       x="-217.5645"
       y="705.78198"><tspan
         x="-217.5645 -216.26158 -213.69774 -212.59563"
         y="705.78198"
         sodipodi:role="line"
         id="tspan22838">fold</tspan></text><text
       xml:space="preserve"
       style="font-size:8px;line-height:1.25;font-family:Arial;-inkscape-font-specification:Arial;white-space:pre;inline-size:40.9473;stroke-width:0.75"
       x="93.730835"
       y="-378.10254"
       id="text64536"
       transform="matrix(1,0,0,-1,182.30986,281.31585)"><tspan
         x="93.730835"
         y="-378.10254"
         id="tspan11178">fold along </tspan><tspan
         x="93.730835"
         y="-368.10253"
         id="tspan11180">dotted line </tspan><tspan
         x="93.730835"
         y="-358.10253"
         id="tspan11182">to cover </tspan><tspan
         x="93.730835"
         y="-348.10253"
         id="tspan11184">battery</tspan></text><path
       d="m 207.2046,603.07132 v 17.813 h 72.583 v -17.813 z"
       style="fill:none;stroke:#000000;stroke-width:1;stroke-linecap:butt;stroke-linejoin:miter;stroke-miterlimit:4;stroke-dasharray:1, 2;stroke-dashoffset:0;stroke-opacity:1"
       id="path22874" /><g
       id="g22876"
       transform="rotate(90,-192.27796,476.39956)"><path
         d="M 0,0 C 0,0 18.873,11.026 8.665,31.802"
         style="fill:none;stroke:#e72923;stroke-width:1;stroke-linecap:butt;stroke-linejoin:miter;stroke-miterlimit:4;stroke-dasharray:none;stroke-opacity:1"
         id="path22878" /></g><g
       id="g22880"
       transform="rotate(90,-213.82246,469.42446)"><path
         d="m 0,0 c -0.117,-0.19 -0.367,-0.25 -0.557,-0.133 l -5.281,3.242 -0.705,-6.156 c -0.025,-0.222 -0.226,-0.382 -0.448,-0.357 -0.222,0.026 -0.381,0.229 -0.357,0.449 l 0.778,6.788 c 0.015,0.137 0.1,0.257 0.225,0.318 0.124,0.061 0.271,0.053 0.389,-0.019 L -0.133,0.557 C -0.065,0.515 -0.014,0.457 0.019,0.39 0.077,0.269 0.075,0.123 0,0"
         style="fill:#e72923;fill-opacity:1;fill-rule:nonzero;stroke:none"
         id="path22882" /></g><g
       id="g22884"
       transform="rotate(90,-211.80381,449.95801)"><path
         d="m 0,0 c -3.636,0 -6.583,2.947 -6.583,6.583 0,3.636 2.947,6.584 6.583,6.584 3.636,0 6.583,-2.948 6.583,-6.584 C 6.583,2.947 3.636,0 0,0"
         style="fill:#ffffff;fill-opacity:1;fill-rule:nonzero;stroke:none"
         id="path22886" /></g><g
       id="g22888"
       transform="rotate(90,-211.5636,450.12828)"><path
         d="m 0,0 c -3.636,0 -6.583,2.947 -6.583,6.583 0,3.636 2.947,6.584 6.583,6.584 3.636,0 6.583,-2.948 6.583,-6.584 C 6.583,2.947 3.636,0 0,0 Z"
         style="fill:none;stroke:#e72923;stroke-width:1;stroke-linecap:butt;stroke-linejoin:miter;stroke-miterlimit:10;stroke-dasharray:none;stroke-opacity:1"
         id="path22890" /></g><text
       transform="scale(0.99103165,-1.0090495)"
       style="font-variant:normal;font-weight:normal;font-stretch:normal;font-size:12.1935px;font-family:'Myriad Pro';-inkscape-font-specification:Gauge-Regular;writing-mode:lr-tb;fill:#e72923;fill-opacity:1;fill-rule:nonzero;stroke:none;stroke-width:0.991032"
       id="text22894"
       x="230.54092"
       y="-651.46472"><tspan
         x="230.54092"
         y="-651.46472"
         id="tspan22892"
         style="font-style:normal;font-variant:normal;font-weight:normal;font-stretch:normal;font-family:Arial;-inkscape-font-specification:Arial;stroke-width:0.991032"
         rotate="0 0">b</tspan></text><g
       id="g22906"
       transform="rotate(90,-217.26036,459.88356)"><path
         d="M 0,0 V 67.203"
         style="fill:none;stroke:#e72923;stroke-width:1;stroke-linecap:butt;stroke-linejoin:miter;stroke-miterlimit:4;stroke-dasharray:none;stroke-opacity:1"
         id="path22908" /></g><g
       id="g22910"
       transform="rotate(90,-250.04821,430.93551)"><path
         d="M 0,0 C -0.186,-0.119 -0.434,-0.064 -0.552,0.123 L -3.84,5.285 -7.127,0.123 C -7.246,-0.064 -7.494,-0.119 -7.68,0 -7.866,0.119 -7.92,0.368 -7.802,0.552 l 3.625,5.692 c 0.073,0.115 0.2,0.185 0.337,0.185 0.137,0 0.264,-0.07 0.338,-0.185 L 0.123,0.552 C 0.165,0.486 0.185,0.411 0.185,0.338 0.185,0.206 0.12,0.077 0,0"
         style="fill:#e72923;fill-opacity:1;fill-rule:nonzero;stroke:none"
         id="path22912" /></g><g
       id="g22914"
       transform="rotate(90,-264.30916,507.43076)"><path
         d="M -9.4661599,0 H -42.874"
         style="fill:none;stroke:#e72923;stroke-width:1;stroke-linecap:butt;stroke-linejoin:miter;stroke-miterlimit:4;stroke-dasharray:none;stroke-opacity:1"
         id="path22916"
         sodipodi:nodetypes="cc" /></g><g
       id="g22918"
       transform="rotate(90,-247.52586,486.80766)"><path
         d="M 0,0 C 0.119,-0.186 0.064,-0.434 -0.123,-0.552 L -5.285,-3.84 -0.123,-7.127 C 0.064,-7.246 0.119,-7.494 0,-7.68 -0.119,-7.866 -0.368,-7.919 -0.552,-7.802 l -5.692,3.625 c -0.115,0.073 -0.185,0.2 -0.185,0.337 0,0.137 0.07,0.264 0.185,0.338 l 5.692,3.625 c 0.066,0.042 0.141,0.062 0.214,0.062 C -0.206,0.185 -0.077,0.12 0,0"
         style="fill:#e72923;fill-opacity:1;fill-rule:nonzero;stroke:none"
         id="path22920" /></g><g
       id="g22930"
       transform="rotate(90,232.68614,689.83246)"><g
         id="g22932"
         clip-path="url(#clipPath22936)"><g
           id="g22938"
           transform="translate(220.0887,679.8954)"><path
             d="m 0,0 v 144.002 h -84.155 v 34.837"
             style="fill:none;stroke:#aea79a;stroke-width:13;stroke-linecap:square;stroke-linejoin:miter;stroke-miterlimit:10;stroke-dasharray:none;stroke-opacity:1"
             id="path22940" /></g><g
           id="g22942"
           transform="translate(219.9976,679.8954)"><path
             d="M 0,0 V 67.203"
             style="fill:none;stroke:#e72923;stroke-width:1;stroke-linecap:butt;stroke-linejoin:miter;stroke-miterlimit:4;stroke-dasharray:none;stroke-opacity:1"
             id="path22944" /></g><g
           id="g22946"
           transform="translate(223.8374,741.6313)"><path
             d="M 0,0 C -0.186,-0.119 -0.434,-0.064 -0.552,0.123 L -3.84,5.285 -7.127,0.123 C -7.246,-0.064 -7.494,-0.119 -7.68,0 -7.866,0.119 -7.92,0.368 -7.802,0.552 l 3.625,5.692 c 0.073,0.115 0.2,0.185 0.337,0.185 0.137,0 0.264,-0.07 0.338,-0.185 L 0.123,0.552 C 0.165,0.486 0.185,0.411 0.185,0.338 0.185,0.206 0.12,0.077 0,0"
             style="fill:#e72923;fill-opacity:1;fill-rule:nonzero;stroke:none"
             id="path22948" /></g></g></g><rect
       style="fill:none;stroke:#e6e6e6;stroke-width:1.13386;stroke-linecap:round"
       id="rect26901"
       width="252.75"
       height="288.69"
       x="512.72009"
       y="26.656204"
       transform="matrix(0,1,1,0,0,0)"
       ry="0" /><text
       xml:space="preserve"
       style="font-size:8px;line-height:1.25;font-family:Arial;-inkscape-font-specification:Arial;white-space:pre;inline-size:52.52;stroke-width:0.75"
       x="93.730835"
       y="-378.10254"
       id="text36419"
       transform="matrix(1,0,0,-1,-57.20269,373.20158)"><tspan
         x="93.730835"
         y="-378.10254"
         id="tspan11186">apply copper </tspan><tspan
         x="93.730835"
         y="-368.10253"
         id="tspan11188">tape to make </tspan><tspan
         x="93.730835"
         y="-358.10253"
         id="tspan11190">circuit</tspan></text><text
       xml:space="preserve"
       style="font-size:8px;line-height:1.25;font-family:Arial;-inkscape-font-specification:Arial;white-space:pre;inline-size:45.3173;stroke-width:0.75"
       x="93.730835"
       y="-378.10254"
       id="text47255"
       transform="matrix(1,0,0,-1,25.58534,374.01281)"><tspan
         x="93.730835"
         y="-378.10254"
         id="tspan11192">continue </tspan><tspan
         x="93.730835"
         y="-368.10253"
         id="tspan11194">tape to the </tspan><tspan
         x="93.730835"
         y="-358.10253"
         id="tspan11196">other side</tspan></text><text
       xml:space="preserve"
       style="font-size:8px;line-height:1.25;font-family:Arial;-inkscape-font-specification:Arial;white-space:pre;inline-size:45.3173;stroke-width:0.75"
       x="93.730835"
       y="-378.10254"
       id="text51769"
       transform="matrix(1,0,0,-1,-16.12051,250.16194)"><tspan
         x="93.730835"
         y="-378.10254"
         id="tspan11198">fix LED with </tspan><tspan
         x="93.730835"
         y="-368.10253"
         id="tspan11200">regular tape</tspan></text><text
       xml:space="preserve"
       style="font-size:8px;line-height:1.25;font-family:Arial;-inkscape-font-specification:Arial;white-space:pre;inline-size:45.3173;stroke-width:0.75"
       x="93.730835"
       y="-378.10254"
       id="text64532"
       transform="matrix(1,0,0,-1,85.636508,279.51177)"><tspan
         x="93.730835"
         y="-378.10254"
         id="tspan11202">continue </tspan><tspan
         x="93.730835"
         y="-368.10253"
         id="tspan11204">tape to the </tspan><tspan
         x="93.730835"
         y="-358.10253"
         id="tspan11206">other side</tspan></text><text
       xml:space="preserve"
       style="font-size:18px;line-height:1.25;font-family:Arial;-inkscape-font-specification:Arial;stroke-width:0.75"
       x="201.33197"
       y="-457.19366"
       id="text70836"
       transform="scale(1,-1)"><tspan
         sodipodi:role="line"
         id="tspan70834"
         style="stroke-width:0.75" /></text><text
       xml:space="preserve"
       style="font-size:8px;line-height:1.25;font-family:Arial;-inkscape-font-specification:Arial;white-space:pre;inline-size:58.8295;stroke-width:0.75"
       x="93.730835"
       y="-378.10254"
       id="text71514"
       transform="matrix(1,0,0,-1,163.20283,369.18161)"><tspan
         x="93.730835"
         y="-378.10254"
         id="tspan11208">once folded, </tspan><tspan
         x="93.730835"
         y="-368.10253"
         id="tspan11210">secure battery </tspan><tspan
         x="93.730835"
         y="-358.10253"
         id="tspan11212">with clip</tspan></text><text
       xml:space="preserve"
       style="font-size:8px;line-height:1.25;font-family:Arial;-inkscape-font-specification:Arial;white-space:pre;inline-size:58.8295;stroke-width:0.75"
       x="93.730835"
       y="-378.10254"
       id="text74636"
       transform="matrix(1,0,0,-1,126.67383,231.8538)"><tspan
         x="93.730835"
         y="-378.10254"
         id="tspan11214">glue pin here</tspan></text><g
       id="g83322"
       transform="rotate(90,-200.686,393.41104)"><path
         d="m 0,0 c -3.636,0 -6.583,2.947 -6.583,6.583 0,3.636 2.947,6.584 6.583,6.584 3.636,0 6.583,-2.948 6.583,-6.584 C 6.583,2.947 3.636,0 0,0 Z"
         style="fill:none;stroke:#e72923;stroke-width:1;stroke-linecap:butt;stroke-linejoin:miter;stroke-miterlimit:10;stroke-dasharray:none;stroke-opacity:1"
         id="path83320" /></g><text
       transform="scale(0.99103165,-1.0090495)"
       style="font-variant:normal;font-weight:normal;font-stretch:normal;font-size:12.1935px;font-family:'Myriad Pro';-inkscape-font-specification:Gauge-Regular;writing-mode:lr-tb;fill:#e72923;fill-opacity:1;fill-rule:nonzero;stroke:none;stroke-width:0.991032"
       id="text83326"
       x="184.474"
       y="-585.60724"><tspan
         x="184.474"
         y="-585.60724"
         id="tspan83324"
         style="font-style:normal;font-variant:normal;font-weight:normal;font-stretch:normal;font-family:Arial;-inkscape-font-specification:Arial;stroke-width:0.991032"
         rotate="0 0">a</tspan></text><text
       xml:space="preserve"
       style="font-size:8px;line-height:1.25;font-family:Arial;-inkscape-font-specification:Arial;white-space:pre;inline-size:58.8295;stroke-width:0.75"
       x="93.730835"
       y="-378.10254"
       id="text85542"
       transform="matrix(1,0,0,-1,101.82755,205.51776)"><tspan
         x="93.730835"
         y="-378.10254"
         id="tspan11216">fold paper and </tspan><tspan
         x="93.730835"
         y="-368.10253"
         id="tspan11218">glue it together</tspan></text><g
       id="g3617"
       transform="translate(3.7435531,51.586259)"><text
         xml:space="preserve"
         style="font-size:8px;line-height:1.25;font-family:Arial;-inkscape-font-specification:Arial;white-space:pre;inline-size:58.8295;stroke-width:0.75"
         x="93.730835"
         y="-378.10254"
         id="text89704"
         transform="matrix(0,1,1,0,538.53283,420.94473)"><tspan
           x="93.730835"
           y="-378.10254"
           id="tspan11220">front</tspan></text><text
         xml:space="preserve"
         style="font-size:8px;line-height:1.25;font-family:Arial;-inkscape-font-specification:Arial;white-space:pre;inline-size:58.8295;stroke-width:0.75"
         x="93.730835"
         y="-378.10254"
         id="text3191"
         transform="matrix(0,-1,-1,0,-203.91986,625.1127)"><tspan
           x="93.730835"
           y="-378.10254"
           id="tspan11222">back</tspan></text></g></g></svg>
